<svg width="196" height="243" viewBox="0 0 196 243" fill="none" xmlns="http://www.w3.org/2000/svg">
<path opacity="0.25" fill-rule="evenodd" clip-rule="evenodd" d="M162.385 195.169C145.637 216.634 123.388 233.163 98.0001 243V210.94C107.876 205.797 117.081 199.458 125.409 192.067C105.664 197.818 84.6098 197.212 65.2281 190.336C45.8464 183.459 29.1195 170.66 17.4161 153.751C5.71265 136.842 -0.374163 116.68 0.01781 96.1209C0.409783 75.5613 7.26058 55.646 19.6 39.1954C31.9394 22.7447 49.1421 10.5925 68.7718 4.45954C88.4016 -1.6734 109.464 -1.47611 128.975 5.02337C148.486 11.5228 165.458 23.9951 177.488 40.674C189.517 57.3528 195.993 77.393 196 97.9563V99.5075C195.993 130.194 186.808 160.177 169.625 185.603L162.385 195.169ZM29.2192 97.9563C29.2192 145.787 59.9896 184.569 98.0001 184.569C132.908 184.569 161.868 151.475 166.005 108.557C166.442 105.561 166.615 102.533 166.522 99.5075V97.9563C166.522 50.1255 136.011 11.0851 98.0001 11.0851C59.9896 11.0851 29.2192 50.1255 29.2192 97.9563Z" fill="#509F96"/>
</svg>
