<svg width="32" height="52" viewBox="0 0 32 52" fill="none" xmlns="http://www.w3.org/2000/svg">
<path fill-rule="evenodd" clip-rule="evenodd" d="M26.5119 44.15C23.7775 47.6545 20.145 50.353 16 51.9591V46.7249C17.6124 45.8851 19.1153 44.8502 20.4749 43.6435C17.2513 44.5824 13.8138 44.4836 10.6495 43.3609C7.48513 42.2382 4.7542 40.1485 2.84344 37.3879C0.932677 34.6273 -0.0610878 31.3355 0.00290775 27.9788C0.0669033 24.6222 1.1854 21.3707 3.2 18.6849C5.2146 15.9991 8.0232 14.015 11.2281 13.0137C14.4329 12.0124 17.8716 12.0446 21.0572 13.1058C24.2427 14.1669 27.0136 16.2032 28.9776 18.9263C30.9415 21.6494 31.9989 24.9212 32 28.2785V28.5318C31.9989 33.5418 30.4993 38.437 27.6939 42.5882L26.5119 44.15ZM4.77048 28.2785C4.77048 36.0876 9.79422 42.4193 16 42.4193C21.6992 42.4193 26.4274 37.0163 27.1029 30.0092C27.1742 29.5201 27.2025 29.0258 27.1873 28.5318V28.2785C27.1873 20.4694 22.2058 14.0955 16 14.0955C9.79422 14.0955 4.77048 20.4694 4.77048 28.2785Z" fill="#509F96"/>
<path d="M16 3.46436L27.1471 8.3673L28.2449 7.39517L16 0.0407715L3.75513 7.39517L4.89515 8.3673L16 3.46436Z" fill="#509F96"/>
</svg>
