<svg width="196" height="318" viewBox="0 0 196 318" fill="none" xmlns="http://www.w3.org/2000/svg">
<path fill-rule="evenodd" clip-rule="evenodd" d="M162.385 270.169C145.637 291.634 123.388 308.163 98.0001 318V285.94C107.876 280.797 117.081 274.458 125.409 267.067C105.664 272.818 84.6098 272.212 65.2281 265.336C45.8464 258.459 29.1195 245.66 17.4161 228.751C5.71265 211.842 -0.374163 191.68 0.01781 171.121C0.409783 150.561 7.26058 130.646 19.6 114.195C31.9394 97.7447 49.1421 85.5925 68.7718 79.4595C88.4016 73.3266 109.464 73.5239 128.975 80.0234C148.486 86.5228 165.458 98.9951 177.488 115.674C189.517 132.353 195.993 152.393 196 172.956V174.508C195.993 205.194 186.808 235.177 169.625 260.603L162.385 270.169ZM29.2192 172.956C29.2192 220.787 59.9896 259.569 98.0001 259.569C132.908 259.569 161.868 226.475 166.005 183.557C166.442 180.561 166.615 177.533 166.522 174.508V172.956C166.522 125.125 136.011 86.0851 98.0001 86.0851C59.9896 86.0851 29.2192 125.125 29.2192 172.956Z" fill="#509F96"/>
<path d="M98 20.9695L166.276 51L173 45.0457L98 0L23 45.0457L29.9826 51L98 20.9695Z" fill="#509F96"/>
</svg>
