<svg width="17" height="18" viewBox="0 0 17 18" fill="none" xmlns="http://www.w3.org/2000/svg">
<path id="Vector" d="M15.4863 1.08005C15.4863 0.793604 15.3695 0.518889 15.1616 0.31634C14.9537 0.113791 14.6718 0 14.3778 0C14.0838 0 13.8018 0.113791 13.5939 0.31634C13.3861 0.518889 13.2693 0.793604 13.2693 1.08005V2.55324C11.6376 1.45035 9.65677 0.948392 7.68038 1.137C5.704 1.32561 3.86074 2.1925 2.47974 3.58289C-0.826581 6.88065 -0.826581 12.219 2.47974 15.5167C3.26104 16.3024 4.1964 16.927 5.23028 17.3536C6.26415 17.7802 7.37547 18 8.49823 18C9.62099 18 10.7323 17.7802 11.7662 17.3536C12.8001 16.927 13.7354 16.3024 14.5167 15.5167C15.434 14.5983 16.1274 13.4906 16.5454 12.2755C16.9635 11.0605 17.0956 9.76937 16.9318 8.49784C16.9141 8.35696 16.8682 8.22084 16.7965 8.09726C16.7249 7.97368 16.6289 7.86506 16.5142 7.77761C16.3994 7.69015 16.2681 7.62557 16.1278 7.58756C15.9874 7.54954 15.8408 7.53883 15.6962 7.55604C15.5516 7.57325 15.4119 7.61804 15.285 7.68786C15.1582 7.75767 15.0467 7.85114 14.957 7.96293C14.8672 8.07473 14.8009 8.20265 14.7619 8.3394C14.7229 8.47615 14.7119 8.61905 14.7295 8.75994C14.966 10.632 14.36 12.5804 12.9308 14.0075C12.356 14.5872 11.6673 15.0482 10.9058 15.3631C10.1443 15.6779 9.32548 15.8402 8.49823 15.8402C7.67097 15.8402 6.85219 15.6779 6.09066 15.3631C5.32913 15.0482 4.64045 14.5872 4.06566 14.0075C1.60032 11.5479 1.60032 7.55172 4.06566 5.09352C4.98095 4.17076 6.17557 3.55795 7.47438 3.34492C8.77319 3.1319 10.1079 3.32986 11.2828 3.90979H10.4581C10.1641 3.90979 9.88213 4.02358 9.67424 4.22613C9.46636 4.42867 9.34957 4.70339 9.34957 4.98984C9.34957 5.27629 9.46636 5.551 9.67424 5.75355C9.88213 5.9561 10.1641 6.06989 10.4581 6.06989H14.3763C14.6703 6.06989 14.9523 5.9561 15.1601 5.75355C15.368 5.551 15.4848 5.27629 15.4848 4.98984L15.4863 1.08005Z" fill="#0A4740"/>
</svg>
