<svg width="18" height="18" viewBox="0 0 18 18" fill="none" xmlns="http://www.w3.org/2000/svg">
<path id="Vector" d="M9.06749 12.1275C8.63249 12.1425 8.2164 12.0714 7.8192 11.9142C7.422 11.757 7.0731 11.5281 6.7725 11.2275C6.4719 10.9269 6.243 10.5894 6.0858 10.215C5.9286 9.8406 5.85 9.4431 5.85 9.0225C5.85 8.8725 5.8575 8.7264 5.8725 8.5842C5.8875 8.442 5.9175 8.3031 5.9625 8.1675C6.0225 7.9875 6.0189 7.8075 5.9517 7.6275C5.8845 7.4475 5.7681 7.32 5.6025 7.245C5.4225 7.17 5.2464 7.17 5.0742 7.245C4.902 7.32 4.7856 7.4475 4.725 7.6275C4.65 7.8525 4.5939 8.0775 4.5567 8.3025C4.5195 8.5275 4.5006 8.76 4.5 9C4.5 9.6 4.6164 10.1739 4.8492 10.7217C5.082 11.2695 5.4081 11.7531 5.8275 12.1725C6.2325 12.5925 6.7089 12.915 7.2567 13.14C7.8045 13.365 8.37059 13.485 8.95499 13.5L8.57249 13.8825C8.43749 14.0175 8.37 14.175 8.37 14.355C8.37 14.535 8.43749 14.6925 8.57249 14.8275C8.70749 14.9625 8.865 15.03 9.04499 15.03C9.22499 15.03 9.38249 14.9625 9.51749 14.8275L10.9575 13.3875C11.1375 13.2075 11.2275 12.9975 11.2275 12.7575C11.2275 12.5175 11.1375 12.3075 10.9575 12.1275L9.51749 10.6875C9.38249 10.5525 9.22499 10.485 9.04499 10.485C8.865 10.485 8.70749 10.5525 8.57249 10.6875C8.43749 10.8225 8.37 10.98 8.37 11.16C8.37 11.34 8.43749 11.4975 8.57249 11.6325L9.06749 12.1275ZM8.90999 5.85C9.34499 5.85 9.76499 5.9289 10.17 6.0867C10.575 6.2445 10.9275 6.4731 11.2275 6.7725C11.5275 7.0719 11.7564 7.4094 11.9142 7.785C12.072 8.1606 12.1506 8.5581 12.15 8.9775C12.15 9.1275 12.1425 9.2736 12.1275 9.4158C12.1125 9.558 12.0825 9.6969 12.0375 9.8325C11.9775 10.0125 11.9814 10.1961 12.0492 10.3833C12.117 10.5705 12.2331 10.7019 12.3975 10.7775C12.5775 10.8525 12.7539 10.8525 12.9267 10.7775C13.0995 10.7025 13.2156 10.575 13.275 10.395C13.35 10.17 13.4064 9.9411 13.4442 9.7083C13.482 9.4755 13.5006 9.2394 13.5 9C13.5 8.4 13.3911 7.8264 13.1733 7.2792C12.9555 6.732 12.6294 6.2406 12.195 5.805C11.775 5.385 11.2914 5.0664 10.7442 4.8492C10.197 4.632 9.63059 4.5231 9.04499 4.5225L9.44999 4.1175C9.56999 3.9825 9.62999 3.825 9.62999 3.645C9.62999 3.465 9.56249 3.3075 9.4275 3.1725C9.29249 3.0375 9.13499 2.97 8.95499 2.97C8.77499 2.97 8.6175 3.0375 8.4825 3.1725L7.0425 4.6125C6.8625 4.7925 6.7725 5.0025 6.7725 5.2425C6.7725 5.4825 6.8625 5.6925 7.0425 5.8725L8.4825 7.3125C8.6175 7.4475 8.77499 7.515 8.95499 7.515C9.13499 7.515 9.29249 7.4475 9.4275 7.3125C9.56249 7.1775 9.62999 7.02 9.62999 6.84C9.62999 6.66 9.56249 6.5025 9.4275 6.3675L8.90999 5.85ZM8.99999 18C7.755 18 6.585 17.7636 5.49 17.2908C4.395 16.818 3.4425 16.1769 2.6325 15.3675C1.8225 14.5581 1.1814 13.6056 0.709201 12.51C0.237001 11.4144 0.000601139 10.2444 1.13924e-06 9C-0.00059886 7.7556 0.235801 6.5856 0.709201 5.49C1.1826 4.3944 1.8237 3.4419 2.6325 2.6325C3.4413 1.8231 4.3938 1.182 5.49 0.7092C6.5862 0.2364 7.7562 0 8.99999 0C10.2438 0 11.4138 0.2364 12.51 0.7092C13.6062 1.182 14.5587 1.8231 15.3675 2.6325C16.1763 3.4419 16.8177 4.3944 17.2917 5.49C17.7657 6.5856 18.0018 7.7556 18 9C17.9982 10.2444 17.7618 11.4144 17.2908 12.51C16.8198 13.6056 16.1787 14.5581 15.3675 15.3675C14.5563 16.1769 13.6038 16.8183 12.51 17.2917C11.4162 17.7651 10.2462 18.0012 8.99999 18ZM8.99999 16.2C11.01 16.2 12.7125 15.5025 14.1075 14.1075C15.5025 12.7125 16.2 11.01 16.2 9C16.2 6.99 15.5025 5.2875 14.1075 3.8925C12.7125 2.4975 11.01 1.8 8.99999 1.8C6.99 1.8 5.2875 2.4975 3.8925 3.8925C2.4975 5.2875 1.8 6.99 1.8 9C1.8 11.01 2.4975 12.7125 3.8925 14.1075C5.2875 15.5025 6.99 16.2 8.99999 16.2Z" fill="#F32735"/>
</svg>
