<svg width="26" height="27" viewBox="0 0 26 27" fill="none" xmlns="http://www.w3.org/2000/svg">
<g id="Add">
<path id="Vector" d="M13.8 6.30077C13.8 5.85898 13.4419 5.50085 13.0001 5.50085C12.5583 5.50085 12.2002 5.85898 12.2002 6.30077V12.7001H5.80089C5.35911 12.7001 5.00098 13.0582 5.00098 13.5C5.00098 13.9418 5.35911 14.2999 5.80089 14.2999H12.2002V20.6992C12.2002 21.141 12.5583 21.4991 13.0001 21.4991C13.4419 21.4991 13.8 21.141 13.8 20.6992V14.2999H20.1994C20.6411 14.2999 20.9993 13.9418 20.9993 13.5C20.9993 13.0582 20.6411 12.7001 20.1994 12.7001H13.8V6.30077Z" fill="#1C1C1C" stroke="#1C1C1C" stroke-width="2" stroke-linecap="round"/>
</g>
</svg>
